<svg width="145" height="22" viewBox="0 0 145 22" fill="none" xmlns="http://www.w3.org/2000/svg">
<path d="M12.27 22H7.41C7.03 22 6.75 21.92 6.57 21.76C6.41 21.58 6.33 21.3 6.33 20.92V6.19H1.92C1.54 6.19 1.26 6.11 1.08 5.95C0.92 5.77 0.84 5.49 0.84 5.11V1.48C0.84 1.1 0.92 0.83 1.08 0.669999C1.26 0.489999 1.54 0.399999 1.92 0.399999H17.76C18.14 0.399999 18.41 0.489999 18.57 0.669999C18.75 0.83 18.84 1.1 18.84 1.48V5.11C18.84 5.49 18.75 5.77 18.57 5.95C18.41 6.11 18.14 6.19 17.76 6.19H13.35V20.92C13.35 21.3 13.26 21.58 13.08 21.76C12.92 21.92 12.65 22 12.27 22ZM9.69 19.3H9.99V3.4H16.14V3.1H3.54V3.4H9.69V19.3ZM23.5863 12.91C23.5863 12.37 23.6263 11.87 23.7063 11.41C23.8063 10.95 23.9263 10.52 24.0663 10.12L25.9863 5.2C26.1863 4.7 26.4063 4.28 26.6463 3.94C26.8863 3.58 27.3063 3.4 27.9063 3.4H30.8463C31.4063 3.4 31.8063 3.58 32.0463 3.94C32.2863 4.28 32.5163 4.71 32.7363 5.23L34.8063 10.12C34.9463 10.52 35.0563 10.95 35.1363 11.41C35.2363 11.87 35.2863 12.37 35.2863 12.91V13.84H23.5863V12.91ZM28.3863 6.7L26.9763 11.26H31.6863L30.2763 6.7C30.1963 6.52 30.1063 6.39 30.0063 6.31C29.9263 6.23 29.8263 6.19 29.7063 6.19H28.9563C28.8363 6.19 28.7263 6.23 28.6263 6.31C28.5463 6.39 28.4663 6.52 28.3863 6.7ZM35.2863 19.3H35.5863V12.91C35.5863 12.35 35.5363 11.84 35.4363 11.38C35.3563 10.9 35.2363 10.44 35.0763 10L33.0063 5.11C32.7663 4.53 32.5063 4.05 32.2263 3.67C31.9663 3.29 31.5063 3.1 30.8463 3.1H27.9063C27.2263 3.1 26.7463 3.29 26.4663 3.67C26.1863 4.05 25.9363 4.52 25.7163 5.08L23.7963 10C23.6363 10.44 23.5063 10.9 23.4063 11.38C23.3263 11.84 23.2863 12.35 23.2863 12.91V19.3H23.5863V14.14H35.2863V19.3ZM26.6763 20.92C26.6763 21.3 26.5863 21.58 26.4063 21.76C26.2463 21.92 25.9763 22 25.5963 22H21.1863C20.8063 22 20.5263 21.92 20.3463 21.76C20.1863 21.58 20.1063 21.3 20.1063 20.92V13C20.1063 12.4 20.1963 11.71 20.3763 10.93C20.5763 10.15 20.8763 9.24 21.2763 8.2L23.8863 1.39C24.0063 1.05 24.1863 0.799999 24.4263 0.64C24.6863 0.479999 25.0163 0.399999 25.4163 0.399999H33.4863C33.8663 0.399999 34.1763 0.479999 34.4163 0.64C34.6763 0.799999 34.8663 1.05 34.9863 1.39L37.5963 8.2C37.9963 9.24 38.2863 10.15 38.4663 10.93C38.6663 11.71 38.7663 12.4 38.7663 13V20.92C38.7663 21.3 38.6763 21.58 38.4963 21.76C38.3363 21.92 38.0663 22 37.6863 22H33.1563C32.7563 22 32.4563 21.92 32.2563 21.76C32.0763 21.58 31.9863 21.3 31.9863 20.92V16.72H26.6763V20.92ZM46.0404 19.3V11.38H54.1104C55.2104 11.38 56.0404 11.58 56.6004 11.98C57.1604 12.38 57.4404 13.06 57.4404 14.02V19.3H57.7404V14.02C57.7404 12.98 57.4404 12.23 56.8404 11.77C56.2404 11.31 55.3304 11.08 54.1104 11.08H52.8804L56.3304 3.1H56.0004L52.5504 11.08H46.0404V3.1H45.7404V19.3H46.0404ZM48.2004 22H43.5504C43.1704 22 42.8904 21.92 42.7104 21.76C42.5504 21.58 42.4704 21.3 42.4704 20.92V1.48C42.4704 1.1 42.5504 0.83 42.7104 0.669999C42.8904 0.489999 43.1704 0.399999 43.5504 0.399999H48.2004C48.5804 0.399999 48.8504 0.489999 49.0104 0.669999C49.1904 0.83 49.2804 1.1 49.2804 1.48V8.38H50.4804L53.5704 1.39C53.7104 1.03 53.9004 0.779999 54.1404 0.64C54.3804 0.479999 54.6904 0.399999 55.0704 0.399999H59.6904C60.0304 0.399999 60.2604 0.489999 60.3804 0.669999C60.5004 0.83 60.4904 1.07 60.3504 1.39L57.2904 8.38C58.4104 8.44 59.3004 8.84 59.9604 9.58C60.6404 10.3 60.9804 11.26 60.9804 12.46V20.92C60.9804 21.3 60.8904 21.58 60.7104 21.76C60.5504 21.92 60.2804 22 59.9004 22H55.2804C54.9004 22 54.6204 21.92 54.4404 21.76C54.2804 21.58 54.2004 21.3 54.2004 20.92V15.07C54.2004 14.75 54.1204 14.5 53.9604 14.32C53.8004 14.14 53.5604 14.05 53.2404 14.05H49.2804V20.92C49.2804 21.3 49.1904 21.58 49.0104 21.76C48.8504 21.92 48.5804 22 48.2004 22ZM79.8532 22H65.9332C65.5532 22 65.2732 21.92 65.0932 21.76C64.9332 21.58 64.8532 21.3 64.8532 20.92V1.48C64.8532 1.1 64.9332 0.83 65.0932 0.669999C65.2732 0.489999 65.5532 0.399999 65.9332 0.399999H79.8532C80.2332 0.399999 80.5032 0.489999 80.6632 0.669999C80.8432 0.83 80.9332 1.1 80.9332 1.48V4.99C80.9332 5.37 80.8432 5.65 80.6632 5.83C80.5032 5.99 80.2332 6.07 79.8532 6.07H71.5732V8.38H77.4232C77.8032 8.38 78.0732 8.47 78.2332 8.65C78.4132 8.81 78.5032 9.08 78.5032 9.46V12.67C78.5032 13.05 78.4132 13.33 78.2332 13.51C78.0732 13.67 77.8032 13.75 77.4232 13.75H71.5732V16.33H79.8532C80.2332 16.33 80.5032 16.42 80.6632 16.6C80.8432 16.76 80.9332 17.03 80.9332 17.41V20.92C80.9332 21.3 80.8432 21.58 80.6632 21.76C80.5032 21.92 80.2332 22 79.8532 22ZM78.2332 19H68.4232V11.23H75.8032V10.93H68.4232V3.4H78.2332V3.1H68.1232V19.3H78.2332V19ZM87.5121 12.91C87.5121 12.37 87.5521 11.87 87.6321 11.41C87.7321 10.95 87.8521 10.52 87.9921 10.12L89.9121 5.2C90.1121 4.7 90.3321 4.28 90.5721 3.94C90.8121 3.58 91.2321 3.4 91.8321 3.4H94.7721C95.3321 3.4 95.7321 3.58 95.9721 3.94C96.2121 4.28 96.4421 4.71 96.6621 5.23L98.7321 10.12C98.8721 10.52 98.9821 10.95 99.0621 11.41C99.1621 11.87 99.2121 12.37 99.2121 12.91V13.84H87.5121V12.91ZM92.3121 6.7L90.9021 11.26H95.6121L94.2021 6.7C94.1221 6.52 94.0321 6.39 93.9321 6.31C93.8521 6.23 93.7521 6.19 93.6321 6.19H92.8821C92.7621 6.19 92.6521 6.23 92.5521 6.31C92.4721 6.39 92.3921 6.52 92.3121 6.7ZM99.2121 19.3H99.5121V12.91C99.5121 12.35 99.4621 11.84 99.3621 11.38C99.2821 10.9 99.1621 10.44 99.0021 10L96.9321 5.11C96.6921 4.53 96.4321 4.05 96.1521 3.67C95.8921 3.29 95.4321 3.1 94.7721 3.1H91.8321C91.1521 3.1 90.6721 3.29 90.3921 3.67C90.1121 4.05 89.8621 4.52 89.6421 5.08L87.7221 10C87.5621 10.44 87.4321 10.9 87.3321 11.38C87.2521 11.84 87.2121 12.35 87.2121 12.91V19.3H87.5121V14.14H99.2121V19.3ZM90.6021 20.92C90.6021 21.3 90.5121 21.58 90.3321 21.76C90.1721 21.92 89.9021 22 89.5221 22H85.1121C84.7321 22 84.4521 21.92 84.2721 21.76C84.1121 21.58 84.0321 21.3 84.0321 20.92V13C84.0321 12.4 84.1221 11.71 84.3021 10.93C84.5021 10.15 84.8021 9.24 85.2021 8.2L87.8121 1.39C87.9321 1.05 88.1121 0.799999 88.3521 0.64C88.6121 0.479999 88.9421 0.399999 89.3421 0.399999H97.4121C97.7921 0.399999 98.1021 0.479999 98.3421 0.64C98.6021 0.799999 98.7921 1.05 98.9121 1.39L101.522 8.2C101.922 9.24 102.212 10.15 102.392 10.93C102.592 11.71 102.692 12.4 102.692 13V20.92C102.692 21.3 102.602 21.58 102.422 21.76C102.262 21.92 101.992 22 101.612 22H97.0821C96.6821 22 96.3821 21.92 96.1821 21.76C96.0021 21.58 95.9121 21.3 95.9121 20.92V16.72H90.6021V20.92ZM122.746 22H107.476C107.096 22 106.816 21.92 106.636 21.76C106.476 21.58 106.396 21.3 106.396 20.92V1.48C106.396 1.1 106.476 0.83 106.636 0.669999C106.816 0.489999 107.096 0.399999 107.476 0.399999H112.126C112.506 0.399999 112.776 0.489999 112.936 0.669999C113.116 0.83 113.206 1.1 113.206 1.48V16.33H117.316V11.47C117.316 11.09 117.396 10.82 117.556 10.66C117.736 10.48 118.016 10.39 118.396 10.39H122.746C123.126 10.39 123.396 10.48 123.556 10.66C123.736 10.82 123.826 11.09 123.826 11.47V20.92C123.826 21.3 123.736 21.58 123.556 21.76C123.396 21.92 123.126 22 122.746 22ZM109.666 19.3H120.706V13.09H120.406V19H109.966V3.1H109.666V19.3ZM143.606 22H128.336C127.956 22 127.676 21.92 127.496 21.76C127.336 21.58 127.256 21.3 127.256 20.92V1.48C127.256 1.1 127.336 0.83 127.496 0.669999C127.676 0.489999 127.956 0.399999 128.336 0.399999H132.986C133.366 0.399999 133.636 0.489999 133.796 0.669999C133.976 0.83 134.066 1.1 134.066 1.48V16.33H138.176V11.47C138.176 11.09 138.256 10.82 138.416 10.66C138.596 10.48 138.876 10.39 139.256 10.39H143.606C143.986 10.39 144.256 10.48 144.416 10.66C144.596 10.82 144.686 11.09 144.686 11.47V20.92C144.686 21.3 144.596 21.58 144.416 21.76C144.256 21.92 143.986 22 143.606 22ZM130.526 19.3H141.566V13.09H141.266V19H130.826V3.1H130.526V19.3Z" fill="black"/>
</svg>
